<svg xmlns="http://www.w3.org/2000/svg" width="31.019" height="31.762" viewBox="0 0 31.019 31.762">
  <g id="Layer_1" transform="translate(2.096 0.5)">
    <g id="Group_3" data-name="Group 3" transform="translate(0 0)">
      <path id="Path_11" data-name="Path 11" d="M28.18,32.762a4.158,4.158,0,0,0,4.142-4.647L29.74,5.691A4.171,4.171,0,0,0,25.6,2H9.1A4.171,4.171,0,0,0,4.955,5.691L2.373,28.115a4.158,4.158,0,0,0,4.142,4.647ZM4.548,28.368,7.141,5.944A1.963,1.963,0,0,1,9.1,4.2H25.6a1.963,1.963,0,0,1,1.956,1.747l2.593,22.423a1.982,1.982,0,0,1-1.967,2.2H6.515a1.982,1.982,0,0,1-1.967-2.2Z" transform="translate(-3.934 -2)" fill="#fff" stroke="#fff" stroke-width="1"/>
      <path id="Path_12" data-name="Path 12" d="M16.592,14.789A6.6,6.6,0,0,0,23.184,8.2V7.1a1.1,1.1,0,1,0-2.2,0V8.2a4.395,4.395,0,1,1-8.789,0V7.1a1.1,1.1,0,0,0-2.2,0V8.2A6.6,6.6,0,0,0,16.592,14.789Z" transform="translate(-1.587 -1.605)" fill="#fff" stroke="#fff" stroke-width="1"/>
    </g>
  </g>
</svg>
