<svg id="scissor" xmlns="http://www.w3.org/2000/svg" width="40.535" height="40.536" viewBox="0 0 40.535 40.536">
  <g id="Group_409" data-name="Group 409" transform="translate(3.689 20.305)">
    <g id="Group_408" data-name="Group 408">
      <path id="Path_1190" data-name="Path 1190" d="M51.323,257.277a2.771,2.771,0,1,0,.812,1.959A2.753,2.753,0,0,0,51.323,257.277Zm-1.12,2.8a1.188,1.188,0,1,1,.348-.84A1.18,1.18,0,0,1,50.2,260.076Z" transform="translate(-46.593 -256.465)" fill="#fff"/>
    </g>
  </g>
  <g id="Group_411" data-name="Group 411" transform="translate(0 0)">
    <g id="Group_410" data-name="Group 410" transform="translate(0 0)">
      <path id="Path_1191" data-name="Path 1191" d="M40.3,10.565a.792.792,0,0,0-.782-.195L26.189,14.35,30.168,1.018a.792.792,0,0,0-.974-.988l-3.456.979a.792.792,0,0,0-.506.436L18.351,16.689l-7.02,2.1a6.417,6.417,0,1,0,1.423,5.2l3.461.34.34,3.461a6.418,6.418,0,1,0,5.2,1.423l2.1-7.02,15.245-6.881a.792.792,0,0,0,.436-.506l.979-3.456A.792.792,0,0,0,40.3,10.565ZM16.067,21.748a.791.791,0,0,0-.066.4l.056.567-3.933-.386a.792.792,0,0,0-.869.76,4.835,4.835,0,1,1-.869-2.94.792.792,0,0,0,.875.305L17.489,18.6Zm4.014,7.529a.792.792,0,0,0,.305.875,4.834,4.834,0,1,1-2.94-.869.789.789,0,0,0,.732-.571c.012-.023.022-.046.032-.071L20.1,23.775a.792.792,0,1,0-1.476-.574l-.743,1.912L17.6,22.207,26.523,2.431l1.716-.486ZM38.107,14.015,24.449,20.18l1.2-4.016L38.593,12.3Z" transform="translate(-0.004 0)" fill="#fff"/>
    </g>
  </g>
  <g id="Group_413" data-name="Group 413" transform="translate(14.841 31.348)">
    <g id="Group_412" data-name="Group 412">
      <path id="Path_1192" data-name="Path 1192" d="M192.189,396.759a2.771,2.771,0,1,0,0,3.919A2.753,2.753,0,0,0,192.189,396.759Zm-1.12,2.8a1.187,1.187,0,1,1,0-1.679A1.18,1.18,0,0,1,191.07,399.558Z" transform="translate(-187.459 -395.947)" fill="#fff"/>
    </g>
  </g>
  <g id="Group_415" data-name="Group 415" transform="translate(19.42 20.48)">
    <g id="Group_414" data-name="Group 414">
      <path id="Path_1193" data-name="Path 1193" d="M246.377,258.726a.792.792,0,0,0-1.024.452l-.009.024a.792.792,0,1,0,1.476.572l.009-.024A.792.792,0,0,0,246.377,258.726Z" transform="translate(-245.29 -258.672)" fill="#fff"/>
    </g>
  </g>
</svg>
