<svg xmlns="http://www.w3.org/2000/svg" xmlns:xlink="http://www.w3.org/1999/xlink" width="99.584" height="87.234" viewBox="0 0 99.584 87.234">
  <defs>
    <linearGradient id="linear-gradient" x1="-0.463" y1="2.032" x2="1.411" y2="-0.539" gradientUnits="objectBoundingBox">
      <stop offset="0" stop-color="#ffc0bb"/>
      <stop offset="0.427" stop-color="#ffd8be"/>
      <stop offset="1" stop-color="#feffc2"/>
    </linearGradient>
    <linearGradient id="linear-gradient-2" x1="-0.918" y1="1.718" x2="3.059" y2="-1.982" xlink:href="#linear-gradient"/>
    <linearGradient id="linear-gradient-3" x1="-0.057" y1="0.987" x2="5.315" y2="-4.079" xlink:href="#linear-gradient"/>
    <linearGradient id="linear-gradient-4" x1="0.5" y1="0.971" x2="0.5" y2="-0.029" gradientUnits="objectBoundingBox">
      <stop offset="0" stop-color="#ff6e0b"/>
      <stop offset="0.041" stop-color="#ff752f" stop-opacity="0.961"/>
      <stop offset="0.091" stop-color="#ff7d53" stop-opacity="0.91"/>
      <stop offset="0.147" stop-color="#ff8373" stop-opacity="0.855"/>
      <stop offset="0.209" stop-color="#ff898f" stop-opacity="0.792"/>
      <stop offset="0.279" stop-color="#ff8da5" stop-opacity="0.722"/>
      <stop offset="0.361" stop-color="#ff91b6" stop-opacity="0.639"/>
      <stop offset="0.463" stop-color="#ff93c1" stop-opacity="0.537"/>
      <stop offset="0.605" stop-color="#ff95c8" stop-opacity="0.396"/>
      <stop offset="1" stop-color="#ff95ca" stop-opacity="0"/>
    </linearGradient>
    <linearGradient id="linear-gradient-5" x1="0.433" y1="0.699" x2="3.737" y2="-5.123" gradientUnits="objectBoundingBox">
      <stop offset="0" stop-color="#ff3d2c"/>
      <stop offset="1" stop-color="#fed27d"/>
    </linearGradient>
    <linearGradient id="linear-gradient-6" x1="0.051" y1="1.676" x2="1.322" y2="-2.571" xlink:href="#linear-gradient-5"/>
    <linearGradient id="linear-gradient-7" x1="-0.273" y1="1.77" x2="3.635" y2="-4.635" xlink:href="#linear-gradient-5"/>
    <linearGradient id="linear-gradient-8" x1="-0.135" y1="2.195" x2="1.076" y2="-1.783" xlink:href="#linear-gradient-5"/>
    <linearGradient id="linear-gradient-9" x1="0.307" y1="0.757" x2="2.222" y2="-1.787" xlink:href="#linear-gradient-5"/>
    <linearGradient id="linear-gradient-10" x1="-0.024" y1="1.852" x2="1.685" y2="-2.997" xlink:href="#linear-gradient-5"/>
    <linearGradient id="linear-gradient-11" x1="-0.061" y1="0.987" x2="2.697" y2="-2.141" xlink:href="#linear-gradient"/>
    <linearGradient id="linear-gradient-12" x1="-0.513" y1="3.495" x2="1.195" y2="-1.876" xlink:href="#linear-gradient"/>
  </defs>
  <g id="bag" transform="translate(-45.38 -65.5)">
    <path id="Path_10864" data-name="Path 10864" d="M164.037,99.544q-3.383-1.291-6.76-2.571,4.045-10.3,8.123-20.663a16.4,16.4,0,0,1,30.928.271q3.823,10.245,7.649,20.449-3.4,1.221-6.8,2.455-3.776-10.217-7.562-20.467a9.316,9.316,0,0,0-17.539-.153Q168.073,89.216,164.037,99.544Z" transform="translate(-85.444)" fill="url(#linear-gradient)"/>
    <path id="Path_10865" data-name="Path 10865" d="M311.524,170.029q3.4-1.233,6.8-2.455-1.8-4.812-3.6-9.638-3.846-.033-7.692-.053Q309.278,163.962,311.524,170.029Z" transform="translate(-199.795 -70.543)" fill="url(#linear-gradient-2)"/>
    <path id="Path_10866" data-name="Path 10866" d="M164.037,170.083q2.371-6.1,4.75-12.2-3.871.02-7.741.053-1.888,4.8-3.768,9.582,3.376,1.279,6.76,2.57Z" transform="translate(-85.444 -70.539)" fill="url(#linear-gradient-3)"/>
    <path id="Path_10867" data-name="Path 10867" d="M164.037,99.544q-3.383-1.291-6.76-2.571,4.045-10.3,8.123-20.663a16.4,16.4,0,0,1,30.928.271q3.823,10.245,7.649,20.449-3.4,1.221-6.8,2.455-3.776-10.217-7.562-20.467a9.316,9.316,0,0,0-17.539-.153Q168.073,89.216,164.037,99.544Z" transform="translate(-85.444)" fill="url(#linear-gradient-4)"/>
    <path id="Path_10868" data-name="Path 10868" d="M49.066,189.267a3.68,3.68,0,0,0-3.587,4.455q.326,1.34.657,2.682,12.282,3.463,24.613,7.1-3.635-7.227-7.184-14.4Q56.316,189.172,49.066,189.267Z" transform="translate(0 -94.385)" fill="url(#linear-gradient-5)"/>
    <path id="Path_10869" data-name="Path 10869" d="M106.889,193.138a3.679,3.679,0,0,1,3.567-4.5q38.856-.352,77.712.161a3.68,3.68,0,0,1,3.587,4.455q-.326,1.34-.657,2.682c-16.29,5.8-32.7,11.944-49.036,18-11.492-6.058-23.043-12.158-34.507-18.089q-.335-1.359-.666-2.716Z" transform="translate(-46.89 -93.922)" fill="url(#linear-gradient-6)"/>
    <path id="Path_10870" data-name="Path 10870" d="M63.107,219.61q4.494,7.162,9.081,14.408-10.914-3.651-21.826-7.223-.909-3.555-1.784-7.1Q55.843,219.646,63.107,219.61Z" transform="translate(-2.442 -117.677)" fill="url(#linear-gradient-7)"/>
    <path id="Path_10871" data-name="Path 10871" d="M110.037,219.336q41.771-.206,83.542.087-.875,3.543-1.784,7.1c-15.751,5.925-31.568,12.116-47.252,18.173-10.858-6.058-21.808-12.179-32.713-18.174Q110.922,222.923,110.037,219.336Z" transform="translate(-49.372 -117.403)" fill="url(#linear-gradient-8)"/>
    <path id="Path_10872" data-name="Path 10872" d="M78.142,332.92q1.71,6.241,3.479,12.512A15.435,15.435,0,0,0,95.8,356.667q7.092.155,14.184.221-.138-11.82-.2-23.639Q93.964,333.183,78.142,332.92Z" transform="translate(-25.017 -204.2)" fill="url(#linear-gradient-9)"/>
    <path id="Path_10873" data-name="Path 10873" d="M145.456,338.537q.949,3.568,1.906,7.141a14.94,14.94,0,0,0,14.025,11.159q17.294.159,34.588-.221a15.436,15.436,0,0,0,14.182-11.234q1.769-6.278,3.484-12.528C190.845,335.037,168.108,337.015,145.456,338.537Z" transform="translate(-76.418 -204.151)" fill="url(#linear-gradient-10)"/>
    <path id="Path_10874" data-name="Path 10874" d="M70.664,250H56.125q2.492,9.751,5.2,19.588s0,.01.005.014a7.606,7.606,0,0,0,7.123,5.531q4.4.078,8.79.136,3.721-6.267,7.544-12.591Q77.721,256.307,70.664,250Z" transform="translate(-8.205 -140.883)" fill="url(#linear-gradient-11)"/>
    <path id="Path_10875" data-name="Path 10875" d="M185.261,275.134q-30.528.541-61.056.136c-2.248-8.451-4.459-16.878-6.579-25.27H197.59q-2.492,9.75-5.2,19.587a7.608,7.608,0,0,1-7.13,5.546Z" transform="translate(-55.167 -140.883)" fill="url(#linear-gradient-12)"/>
  </g>
</svg>
