<svg id="shopping-cart-line" xmlns="http://www.w3.org/2000/svg" width="19.002" height="19.002" viewBox="0 0 19.002 19.002">
  <path id="Path_1586" data-name="Path 1586" d="M0,0H19V19H0Z" fill="none"/>
  <path id="Path_1587" data-name="Path 1587" d="M3.6,13.181V3.6H2V2H4.4a.8.8,0,0,1,.8.8v9.583H15.14l1.6-6.389H6.8V4.4H17.763a.8.8,0,0,1,.775.993l-2,7.986a.8.8,0,0,1-.775.6H4.4A.8.8,0,0,1,3.6,13.181Zm1.6,5.59a1.6,1.6,0,1,1,1.6-1.6A1.6,1.6,0,0,1,5.2,18.771Zm9.592,0a1.6,1.6,0,1,1,1.6-1.6A1.6,1.6,0,0,1,14.79,18.771Z" transform="translate(-0.512 -0.512)" fill="#4690ff"/>
</svg>
