<svg id="aivalable-on-the-app-store-2" xmlns="http://www.w3.org/2000/svg" xmlns:xlink="http://www.w3.org/1999/xlink" width="134.964" height="40" viewBox="0 0 134.964 40">
  <defs>
    <linearGradient id="linear-gradient" x1="-1.559" y1="3.462" x2="-1.559" y2="3.387" gradientUnits="objectBoundingBox">
      <stop offset="0" stop-color="#1a1a1a" stop-opacity="0.102"/>
      <stop offset="0.123" stop-color="#212121" stop-opacity="0.153"/>
      <stop offset="0.308" stop-color="#353535" stop-opacity="0.227"/>
      <stop offset="0.532" stop-color="#575757" stop-opacity="0.318"/>
      <stop offset="0.783" stop-color="#858585" stop-opacity="0.42"/>
      <stop offset="1" stop-color="#b3b3b3" stop-opacity="0.51"/>
    </linearGradient>
  </defs>
  <path id="Path_10899" data-name="Path 10899" d="M143.86,45.067a3.831,3.831,0,0,1-3.835,3.831H14.521a3.836,3.836,0,0,1-3.84-3.831V14.516a3.841,3.841,0,0,1,3.84-3.836h125.5a3.835,3.835,0,0,1,3.835,3.836V45.067Z" transform="translate(-9.791 -9.79)" fill="#fff"/>
  <path id="Path_10900" data-name="Path 10900" d="M130.234,40H4.73A4.731,4.731,0,0,1,0,35.278V4.727A4.734,4.734,0,0,1,4.73,0h125.5a4.736,4.736,0,0,1,4.73,4.727v30.55A4.731,4.731,0,0,1,130.234,40Z" fill="#a6a6a6"/>
  <path id="Path_10901" data-name="Path 10901" d="M143.86,45.067a3.831,3.831,0,0,1-3.835,3.831H14.521a3.836,3.836,0,0,1-3.84-3.831V14.516a3.841,3.841,0,0,1,3.84-3.836h125.5a3.835,3.835,0,0,1,3.835,3.836V45.067Z" transform="translate(-9.791 -9.79)"/>
  <path id="Path_10902" data-name="Path 10902" d="M170.845,88.175a5.8,5.8,0,0,1,2.762-4.865,5.939,5.939,0,0,0-4.677-2.529c-1.968-.207-3.876,1.177-4.878,1.177-1.022,0-2.566-1.157-4.229-1.123a6.227,6.227,0,0,0-5.241,3.2c-2.267,3.924-.576,9.691,1.6,12.863,1.086,1.554,2.356,3.288,4.017,3.227,1.625-.066,2.233-1.035,4.194-1.035,1.943,0,2.514,1.035,4.208,1,1.745-.027,2.843-1.56,3.891-3.128a12.826,12.826,0,0,0,1.779-3.624,5.61,5.61,0,0,1-3.421-5.155Zm-3.2-9.481a5.708,5.708,0,0,0,1.306-4.09,5.814,5.814,0,0,0-3.759,1.945,5.431,5.431,0,0,0-1.34,3.939A4.8,4.8,0,0,0,167.644,78.694Z" transform="translate(-140.709 -68.385)" fill="#fff"/>
  <path id="Path_10903" data-name="Path 10903" d="M823.14,0H755.916l26.33,40H823.14a4.734,4.734,0,0,0,4.73-4.725V4.727A4.735,4.735,0,0,0,823.14,0Z" transform="translate(-692.906)" fill="url(#linear-gradient)"/>
  <g id="Group_1177" data-name="Group 1177" transform="translate(42.442 18.004)">
    <path id="Path_10904" data-name="Path 10904" d="M520.4,229.5h-2.272l-1.244-3.91h-4.325l-1.185,3.91H509.16l4.286-13.312h2.647Zm-3.891-5.551-1.125-3.476q-.179-.533-.671-2.508h-.04q-.2.849-.632,2.508l-1.106,3.476Zm14.892.633a5.435,5.435,0,0,1-1.33,3.87,3.9,3.9,0,0,1-2.959,1.264,2.962,2.962,0,0,1-2.741-1.361v5.036h-2.133V223.055q0-1.538-.079-3.155h1.875l.119,1.521h.04a3.794,3.794,0,0,1,6.073-.377A5.308,5.308,0,0,1,531.4,224.581Zm-2.173.078a3.957,3.957,0,0,0-.632-2.312,2.185,2.185,0,0,0-1.857-.947,2.218,2.218,0,0,0-1.431.523,2.426,2.426,0,0,0-.839,1.373,2.787,2.787,0,0,0-.1.649v1.6a2.568,2.568,0,0,0,.642,1.769,2.132,2.132,0,0,0,1.669.721,2.185,2.185,0,0,0,1.875-.928A4.086,4.086,0,0,0,529.227,224.659Zm13.213-.078a5.436,5.436,0,0,1-1.33,3.87,3.9,3.9,0,0,1-2.96,1.264,2.962,2.962,0,0,1-2.741-1.361v5.036h-2.133V223.055q0-1.538-.079-3.155h1.875l.119,1.521h.04a3.795,3.795,0,0,1,6.074-.377A5.313,5.313,0,0,1,542.439,224.581Zm-2.174.078a3.957,3.957,0,0,0-.633-2.312,2.181,2.181,0,0,0-1.854-.947,2.227,2.227,0,0,0-1.433.523,2.425,2.425,0,0,0-.838,1.373,2.851,2.851,0,0,0-.1.649v1.6a2.577,2.577,0,0,0,.641,1.769,2.136,2.136,0,0,0,1.67.721,2.183,2.183,0,0,0,1.875-.928A4.085,4.085,0,0,0,540.266,224.659Zm14.517,1.105a3.556,3.556,0,0,1-1.183,2.766,5.245,5.245,0,0,1-3.626,1.165,6.329,6.329,0,0,1-3.447-.829l.493-1.777a5.933,5.933,0,0,0,3.081.83,2.907,2.907,0,0,0,1.876-.543,1.775,1.775,0,0,0,.673-1.45,1.859,1.859,0,0,0-.554-1.363,5.138,5.138,0,0,0-1.836-1.026q-3.5-1.3-3.5-3.813A3.367,3.367,0,0,1,548,217.037a4.881,4.881,0,0,1,3.269-1.047,6.46,6.46,0,0,1,3.022.632l-.535,1.738a5.284,5.284,0,0,0-2.558-.612,2.6,2.6,0,0,0-1.765.553,1.583,1.583,0,0,0-.535,1.206,1.631,1.631,0,0,0,.613,1.3,6.911,6.911,0,0,0,1.935,1.026,6.56,6.56,0,0,1,2.528,1.618A3.372,3.372,0,0,1,554.783,225.765Zm7.069-4.264H559.5v4.66q0,1.778,1.244,1.776a3.751,3.751,0,0,0,.947-.1l.059,1.619a4.83,4.83,0,0,1-1.658.236,2.556,2.556,0,0,1-1.976-.771,3.782,3.782,0,0,1-.711-2.588V221.5h-1.4v-1.6h1.4v-1.757l2.095-.632v2.39h2.351Zm10.585,3.12a5.265,5.265,0,0,1-1.264,3.634,4.507,4.507,0,0,1-3.515,1.461,4.3,4.3,0,0,1-3.368-1.4,5.106,5.106,0,0,1-1.254-3.535,5.222,5.222,0,0,1,1.293-3.653,4.483,4.483,0,0,1,3.487-1.422,4.386,4.386,0,0,1,3.4,1.4A5.038,5.038,0,0,1,572.437,224.62Zm-2.211.049a4.3,4.3,0,0,0-.571-2.265,2.111,2.111,0,0,0-1.917-1.143,2.142,2.142,0,0,0-1.956,1.143,4.369,4.369,0,0,0-.572,2.3,4.286,4.286,0,0,0,.572,2.266,2.187,2.187,0,0,0,3.854-.019A4.314,4.314,0,0,0,570.226,224.669Zm9.145-2.894a3.7,3.7,0,0,0-.672-.059,2.013,2.013,0,0,0-1.738.85,3.2,3.2,0,0,0-.532,1.9V229.5H574.3v-6.576q0-1.658-.062-3.022h1.858l.078,1.836h.059a3.294,3.294,0,0,1,1.066-1.521,2.579,2.579,0,0,1,1.541-.514,3.414,3.414,0,0,1,.533.039Zm9.539,2.47a5.009,5.009,0,0,1-.078.967h-6.4a2.784,2.784,0,0,0,.928,2.175,3.174,3.174,0,0,0,2.093.67,7.077,7.077,0,0,0,2.589-.453l.334,1.479a8,8,0,0,1-3.218.593,4.665,4.665,0,0,1-3.507-1.312,4.852,4.852,0,0,1-1.273-3.525,5.5,5.5,0,0,1,1.186-3.613,4.087,4.087,0,0,1,3.356-1.539,3.577,3.577,0,0,1,3.142,1.539A5.181,5.181,0,0,1,588.909,224.245Zm-2.034-.553a2.887,2.887,0,0,0-.414-1.639,1.862,1.862,0,0,0-1.7-.89,2.022,2.022,0,0,0-1.7.869,3.185,3.185,0,0,0-.631,1.658Z" transform="translate(-509.16 -215.99)" fill="#fff"/>
  </g>
  <g id="Group_1178" data-name="Group 1178" transform="translate(43.236 6.555)">
    <path id="Path_10905" data-name="Path 10905" d="M524.213,85.518H523.1l-.611-1.922h-2.126l-.583,1.922h-1.087l2.107-6.543h1.3ZM522.3,82.79l-.553-1.708c-.058-.175-.165-.582-.33-1.232h-.02c-.068.281-.165.689-.311,1.232l-.543,1.708Zm7.18-1.99-1.787,4.717h-1.019L524.946,80.8h1.126l.806,2.495c.136.417.252.815.339,1.193h.029c.078-.339.194-.737.339-1.193l.8-2.495Zm3.8,4.717-.078-.543h-.029a1.609,1.609,0,0,1-1.378.65,1.373,1.373,0,0,1-1.446-1.388c0-1.164,1.009-1.766,2.757-1.766v-.087c0-.621-.33-.932-.98-.932a2.2,2.2,0,0,0-1.232.35l-.213-.689A3.02,3.02,0,0,1,532.3,80.7c1.232,0,1.855.65,1.855,1.952v1.737a7.012,7.012,0,0,0,.068,1.126Zm-.146-2.35c-1.165,0-1.747.282-1.747.951a.668.668,0,0,0,.718.737,1,1,0,0,0,1.029-.96Zm3.356-3.145a.627.627,0,1,1,.66-.631A.616.616,0,0,1,536.493,80.023Zm.544,5.495h-1.048V80.8h1.048Zm2.911,0H538.9V78.636h1.048Zm4.455,0-.078-.543H544.3a1.609,1.609,0,0,1-1.378.65,1.373,1.373,0,0,1-1.446-1.388c0-1.164,1.009-1.766,2.757-1.766v-.087c0-.621-.33-.932-.98-.932a2.2,2.2,0,0,0-1.232.35l-.214-.69a3.02,3.02,0,0,1,1.621-.408c1.232,0,1.854.65,1.854,1.952v1.737a7.266,7.266,0,0,0,.067,1.126H544.4Zm-.146-2.35c-1.165,0-1.747.282-1.747.951a.668.668,0,0,0,.718.737,1,1,0,0,0,1.029-.96Zm5.268,2.457a1.6,1.6,0,0,1-1.484-.835h-.021l-.06.728h-.893c.029-.378.039-.806.039-1.271V78.636h1.049v2.855h.02a1.618,1.618,0,0,1,1.5-.786c1.136,0,1.933.971,1.933,2.388a2.27,2.27,0,0,1-2.087,2.533Zm-.213-4.1a1.206,1.206,0,0,0-1.155,1.252v.825a1.156,1.156,0,0,0,1.137,1.184c.785,0,1.252-.64,1.252-1.659C550.545,82.179,550.059,81.528,549.311,81.528Zm4.9,3.99h-1.047V78.636h1.047Zm5.706-2.107h-3.147a1.354,1.354,0,0,0,1.485,1.4,3.539,3.539,0,0,0,1.271-.223l.163.728a3.933,3.933,0,0,1-1.581.291,2.19,2.19,0,0,1-2.35-2.378,2.3,2.3,0,0,1,2.232-2.534,2.34,2.34,0,0,1,1.927,2.718Zm-.961-.747c0-.728-.369-1.242-1.039-1.242a1.245,1.245,0,0,0-1.146,1.242Zm7.316,2.961A2.245,2.245,0,0,1,564,83.2,2.3,2.3,0,0,1,566.35,80.7a2.228,2.228,0,0,1,2.272,2.418A2.312,2.312,0,0,1,566.271,85.625Zm.04-4.155c-.757,0-1.242.708-1.242,1.7,0,.971.5,1.679,1.232,1.679s1.231-.757,1.231-1.7C567.533,82.188,567.048,81.47,566.31,81.47Zm7.945,4.048h-1.047V82.809c0-.834-.32-1.252-.951-1.252a1.09,1.09,0,0,0-1.049,1.155v2.806h-1.047V82.149c0-.417-.011-.864-.039-1.349h.922l.049.728h.029a1.693,1.693,0,0,1,1.494-.825c.989,0,1.639.757,1.639,1.99v2.826Zm6.859-3.931h-1.153v2.291q0,.875.61.874a2.074,2.074,0,0,0,.466-.049l.029.8a2.334,2.334,0,0,1-.814.117c-.826,0-1.319-.456-1.319-1.65V81.587h-.688V80.8h.688v-.864l1.028-.311V80.8h1.153Zm5.552,3.931h-1.049V82.829c0-.844-.32-1.271-.951-1.271a1.027,1.027,0,0,0-1.047,1.116v2.844H582.57V78.636h1.049V81.47h.02a1.588,1.588,0,0,1,1.417-.767c1,0,1.61.776,1.61,2.01Zm5.356-2.107h-3.146a1.353,1.353,0,0,0,1.485,1.4,3.535,3.535,0,0,0,1.271-.223l.164.728a3.938,3.938,0,0,1-1.582.291,2.19,2.19,0,0,1-2.35-2.378,2.3,2.3,0,0,1,2.232-2.534,1.982,1.982,0,0,1,1.961,2.243A2.042,2.042,0,0,1,592.023,83.411Zm-.961-.747c0-.728-.368-1.242-1.038-1.242a1.244,1.244,0,0,0-1.146,1.242Z" transform="translate(-518.688 -78.636)" fill="#fff"/>
  </g>
</svg>
