<svg id="comma" xmlns="http://www.w3.org/2000/svg" width="53" height="39.131" viewBox="0 0 53 39.131">
  <path id="Path_10907" data-name="Path 10907" d="M23.288,43.839H10.433c.22,9.369,2.877,10.432,6.214,10.736l1.287.16v10.3l-1.483-.079c-4.358-.245-9.176-1.031-12.391-5C1.242,56.479,0,50.8,0,42.071V25.905H23.288Z" transform="translate(29.712 -25.905)" fill="#4690ff"/>
  <path id="Path_10908" data-name="Path 10908" d="M134.288,25.905V43.839H121.6c.22,9.369,2.791,10.432,6.128,10.736l1.2.16v10.3l-1.4-.079c-4.358-.245-9.219-1.031-12.434-5-2.818-3.479-4.1-9.162-4.1-17.886V25.905Z" transform="translate(-111 -25.905)" fill="#4690ff"/>
</svg>
