<svg id="fork" xmlns="http://www.w3.org/2000/svg" width="29.258" height="34.837" viewBox="0 0 29.258 34.837">
  <g id="Group_421" data-name="Group 421" transform="translate(0)">
    <g id="Group_420" data-name="Group 420">
      <path id="Path_1195" data-name="Path 1195" d="M117.361,11.023a1.361,1.361,0,0,0,1.361-1.361v-8.3a1.361,1.361,0,1,0-2.722,0v8.3A1.361,1.361,0,0,0,117.361,11.023Z" transform="translate(-110.897 0)" fill="#fff"/>
      <path id="Path_1196" data-name="Path 1196" d="M52.567,0a1.361,1.361,0,0,0-1.361,1.361V9.866a3.742,3.742,0,1,1-7.485,0V1.361a1.361,1.361,0,0,0-2.722,0V9.866a6.475,6.475,0,0,0,5.1,6.319V33.476a1.361,1.361,0,1,0,2.722,0V16.185a6.475,6.475,0,0,0,5.1-6.319V1.361A1.361,1.361,0,0,0,52.567,0Z" transform="translate(-41 0)" fill="#fff"/>
      <path id="Path_1197" data-name="Path 1197" d="M292.265,3.63c-1.284-2.341-2.989-3.63-4.8-3.63s-3.517,1.289-4.8,3.63A13.614,13.614,0,0,0,281,9.866a6.475,6.475,0,0,0,5.1,6.319V33.476a1.361,1.361,0,0,0,2.722,0V16.185a6.475,6.475,0,0,0,5.1-6.319A13.614,13.614,0,0,0,292.265,3.63Zm-4.8,9.978a3.746,3.746,0,0,1-3.742-3.742,10.931,10.931,0,0,1,1.327-4.927c.75-1.368,1.676-2.217,2.415-2.217s1.665.85,2.415,2.217a10.931,10.931,0,0,1,1.327,4.927A3.746,3.746,0,0,1,287.464,13.608Z" transform="translate(-264.67)" fill="#fff"/>
    </g>
  </g>
</svg>
