<svg id="leaf" xmlns="http://www.w3.org/2000/svg" width="40.786" height="37.039" viewBox="0 0 40.786 37.039">
  <g id="Group_401" data-name="Group 401" transform="translate(0 0)">
    <g id="Group_400" data-name="Group 400">
      <path id="Path_1185" data-name="Path 1185" d="M16.4,25.553C12.834,21.992,5.861,21.579.926,21.579A.926.926,0,0,0,0,22.5C0,27.44.411,34.413,3.974,37.976a8.624,8.624,0,0,0,6.095,2.176A9.237,9.237,0,0,0,16.4,37.974C19.051,35.321,19.538,28.692,16.4,25.553ZM15.088,36.667c-1.982,1.98-7.484,2.319-9.8,0-2.876-2.876-3.374-8.719-3.428-13.23,4.511.054,10.354.552,13.23,3.428C17.407,29.183,17.068,34.687,15.088,36.667Z" transform="translate(0 -21.579)" fill="#fff"/>
    </g>
  </g>
  <g id="Group_403" data-name="Group 403" transform="translate(22.212 3.663)">
    <g id="Group_402" data-name="Group 402" transform="translate(0 0)">
      <path id="Path_1186" data-name="Path 1186" d="M273.51,63.776c-4.935,0-11.908.411-15.471,3.974-3.141,3.139-2.654,9.767,0,12.421a9.24,9.24,0,0,0,6.326,2.176,8.634,8.634,0,0,0,6.1-2.174c3.561-3.563,3.974-10.536,3.974-15.471A.926.926,0,0,0,273.51,63.776Zm-4.361,15.086c-2.319,2.319-7.823,1.98-9.8,0s-2.319-7.484,0-9.8c2.876-2.876,8.719-3.374,13.23-3.428C272.523,70.145,272.025,75.988,269.149,78.862Z" transform="translate(-255.862 -63.776)" fill="#fff"/>
    </g>
  </g>
  <g id="Group_405" data-name="Group 405" transform="translate(7.407 7.409)">
    <g id="Group_404" data-name="Group 404">
      <path id="Path_1187" data-name="Path 1187" d="M111.093,111.2a1,1,0,0,0-1.306-.409c-7.1,3.339-10.591,9.162-12.177,15.147-1.961-12.727-7.634-16.607-10.039-18.253a5.818,5.818,0,0,1-.663-.483.926.926,0,0,0-1.309,1.309,7.451,7.451,0,0,0,.928.7c2.711,1.854,9.914,6.782,9.914,26.422a.926.926,0,0,0,1.852,0c0-7.936,2.132-18.4,12.284-23.168,0,0,.15-.072.15-.072A.859.859,0,0,0,111.093,111.2Z" transform="translate(-85.328 -106.928)" fill="#fff"/>
    </g>
  </g>
</svg>
